<svg width="64" height="64" viewBox="0 0 800 800" fill="none" xmlns="http://www.w3.org/2000/svg">
    <path
        d="M636.616 112.999C636.616 151.106 605.731 181.998 567.632 181.998C529.532 181.998 498.647 151.106 498.647 112.999C498.647 74.8919 529.532 44 567.632 44C605.731 44 636.616 74.8919 636.616 112.999Z"
        fill="black" />
    <path fill-rule="evenodd" clip-rule="evenodd"
        d="M172.824 180.612C159.139 166.924 136.95 166.924 123.264 180.612C109.581 194.298 109.579 216.486 123.256 230.175L160.532 270.555C146.558 295.613 136.503 322.826 130.86 351.256C120.533 403.282 125.413 457.183 144.916 506.507C164.419 555.831 197.719 598.489 240.83 629.377C283.942 660.264 335.039 678.072 388.006 680.669C440.973 683.266 493.566 670.542 539.491 644.02C549.076 638.485 558.286 632.398 567.08 625.801C569.553 627.656 572.06 629.47 574.6 631.245C616.831 660.758 667.027 678.25 718.472 680.998C739.198 680.998 756 665.429 756 646.223C756 627.017 739.198 611.447 718.472 611.447C681.211 609.457 648.165 597.67 617.379 576.929C628.675 562.74 638.597 547.405 646.961 531.121C671.194 483.941 681.321 430.776 676.131 377.99C671.011 325.927 652.31 276.408 620.148 235.192C617.254 230.067 612.486 225.37 608.147 221.277C598.671 212.338 586.506 206.783 573.545 205.478C560.585 204.174 547.557 207.192 536.49 214.063C530.774 217.611 527.27 220.235 523.114 225.411C489.591 264.539 467.688 312.271 459.887 363.206C452.085 414.14 458.695 466.242 478.968 513.613C488.731 536.424 501.474 557.701 516.778 576.925C512.943 579.498 509.014 581.947 504.997 584.266C470.554 604.158 431.109 613.7 391.383 611.753C351.658 609.805 313.335 596.449 281.002 573.284C248.668 550.118 223.693 518.124 209.066 481.131C194.438 444.138 190.779 403.713 198.524 364.693C201.344 350.486 205.633 336.684 211.282 323.495C221.878 330.028 234.359 333.797 247.72 333.797C286.124 333.797 317.257 302.658 317.257 264.246C317.257 225.834 286.124 194.695 247.72 194.695C229.332 194.695 212.61 201.834 200.175 213.492L172.858 180.65C172.848 180.637 172.836 180.624 172.824 180.612ZM607.477 384.743C611.37 424.333 603.774 464.206 585.6 499.591C580.248 510.01 574.046 519.911 567.08 529.202C557.22 516.054 548.915 501.714 542.387 486.46C527.182 450.932 522.224 411.856 528.076 373.655C532.101 347.378 541.076 322.81 554.503 300.124C555.869 299.161 557.392 297.77 558.941 297.113C562.377 295.654 566.11 295.029 569.834 295.289C572.815 295.498 575.723 296.269 578.406 297.555C594.449 323.978 604.43 353.76 607.477 384.743Z"
        fill="black" />
</svg>