<?xml version="1.0" standalone="no"?>
<!DOCTYPE svg PUBLIC "-//W3C//DTD SVG 20010904//EN"
 "http://www.w3.org/TR/2001/REC-SVG-20010904/DTD/svg10.dtd">
<svg version="1.0" xmlns="http://www.w3.org/2000/svg"
 width="700.000000pt" height="700.000000pt" viewBox="0 0 700.000000 700.000000"
 preserveAspectRatio="xMidYMid meet">
<metadata>
Created by potrace 1.14, written by Peter Selinger 2001-2017
</metadata>
<g transform="translate(0.000000,700.000000) scale(0.100000,-0.100000)"
fill="#000000" stroke="none">
<path d="M4865 6605 c-239 -41 -440 -234 -488 -470 -53 -264 76 -537 310 -655
37 -18 77 -37 88 -42 80 -32 248 -38 337 -13 238 67 409 253 448 485 69 410
-286 764 -695 695z"/>
<path d="M1209 5496 c-124 -33 -219 -162 -219 -297 0 -91 30 -151 132 -260 49
-54 222 -240 233 -253 52 -59 51 -48 7 -133 -99 -192 -196 -481 -227 -683 -4
-25 -9 -54 -11 -65 -25 -124 -25 -651 0 -694 2 -4 6 -28 10 -56 3 -27 10 -65
15 -83 5 -18 10 -35 10 -37 -2 -87 164 -523 254 -670 7 -10 30 -49 51 -85 93
-152 201 -286 361 -445 273 -272 628 -483 993 -591 100 -30 287 -70 364 -80
29 -3 64 -8 78 -10 51 -9 398 -11 470 -3 131 14 175 20 190 24 8 2 30 7 48 10
18 3 61 12 95 21 34 8 72 17 84 20 31 6 240 78 293 100 143 61 295 143 432
235 l90 61 72 -50 c289 -201 691 -361 1021 -406 22 -3 56 -8 75 -11 19 -3 73
-7 120 -9 185 -9 318 81 355 239 31 132 -37 265 -170 330 -50 24 -72 28 -210
40 -262 22 -552 120 -761 259 l-62 40 43 56 c249 324 425 770 471 1195 17 163
6 513 -20 644 -3 14 -8 42 -11 61 -58 369 -289 858 -525 1112 -191 207 -461
241 -690 87 -59 -40 -66 -47 -161 -166 -54 -68 -84 -111 -165 -238 -96 -151
-235 -479 -269 -634 -3 -12 -7 -31 -10 -43 -9 -38 -35 -170 -41 -208 -3 -19
-7 -45 -9 -57 -8 -46 -18 -221 -18 -308 -1 -171 23 -383 59 -530 8 -33 17 -71
20 -84 11 -54 69 -222 106 -311 78 -185 192 -384 307 -537 l32 -42 -57 -36
c-77 -49 -261 -136 -355 -168 -96 -33 -258 -73 -329 -82 -30 -4 -71 -9 -90
-11 -60 -8 -302 -8 -365 0 -49 6 -161 26 -282 52 -110 22 -404 156 -528 239
-451 303 -738 774 -802 1315 -13 111 -5 453 12 479 2 4 6 24 9 46 16 96 61
255 100 346 l15 36 59 -28 c275 -132 619 -30 778 232 94 156 116 358 54 521
-118 312 -442 473 -755 374 -81 -26 -159 -68 -206 -112 l-25 -24 -20 23 c-10
12 -62 74 -114 137 -136 165 -152 180 -236 205 -58 18 -112 18 -175 1z m3846
-1097 c18 -14 101 -178 139 -273 225 -559 151 -1208 -196 -1704 l-37 -54 -62
94 c-151 230 -233 447 -285 758 -3 19 -7 112 -9 205 -6 318 56 584 197 857 50
96 63 108 128 131 21 7 113 -3 125 -14z"/>
</g>
</svg>
